<mxfile host="app.diagrams.net" agent="Mozilla/5.0 (Windows NT 10.0; Win64; x64) AppleWebKit/537.36 (KHTML, like Gecko) Chrome/135.0.0.0 Safari/537.36" version="26.2.9">
  <diagram name="PÃ¡gina-1" id="iRtZuz8o9PtseL_XgVyc">
    <mxGraphModel dx="1428" dy="785" grid="1" gridSize="10" guides="1" tooltips="1" connect="1" arrows="1" fold="1" page="1" pageScale="1" pageWidth="827" pageHeight="1169" math="0" shadow="0">
      <root>
        <mxCell id="0" />
        <mxCell id="1" parent="0" />
        <mxCell id="weX92VrwuEiOlEdSTvCO-12" value="&lt;h3&gt;&lt;b&gt;&lt;font face=&quot;Lucida Console&quot;&gt;CifradoCesar&lt;/font&gt;&lt;/b&gt;&lt;/h3&gt;" style="swimlane;fontStyle=0;childLayout=stackLayout;horizontal=1;startSize=30;horizontalStack=0;resizeParent=1;resizeParentMax=0;resizeLast=0;collapsible=1;marginBottom=0;whiteSpace=wrap;html=1;fillColor=#d5e8d4;strokeColor=#82b366;" vertex="1" parent="1">
          <mxGeometry x="40" y="30" width="210" height="230" as="geometry" />
        </mxCell>
        <mxCell id="weX92VrwuEiOlEdSTvCO-13" value="&lt;b&gt;&lt;font face=&quot;Lucida Console&quot;&gt;- frase : String&lt;/font&gt;&lt;/b&gt;&lt;div&gt;&lt;b&gt;&lt;font face=&quot;Lucida Console&quot;&gt;- posCifrado: Int&lt;/font&gt;&lt;/b&gt;&lt;/div&gt;&lt;div&gt;&lt;b&gt;&lt;font face=&quot;Lucida Console&quot;&gt;- option: Int&amp;nbsp;&lt;/font&gt;&lt;/b&gt;&lt;/div&gt;&lt;div&gt;&lt;b&gt;&lt;font face=&quot;Lucida Console&quot;&gt;- postFrase: String&lt;/font&gt;&lt;/b&gt;&lt;/div&gt;" style="text;strokeColor=#666666;fillColor=#f5f5f5;align=left;verticalAlign=middle;spacingLeft=4;spacingRight=4;overflow=hidden;points=[[0,0.5],[1,0.5]];portConstraint=eastwest;rotatable=0;whiteSpace=wrap;html=1;fontColor=#333333;" vertex="1" parent="weX92VrwuEiOlEdSTvCO-12">
          <mxGeometry y="30" width="210" height="90" as="geometry" />
        </mxCell>
        <mxCell id="weX92VrwuEiOlEdSTvCO-14" value="+ cifrar(): Void&lt;div&gt;+ decifrar() : Void&amp;nbsp;&lt;/div&gt;&lt;div&gt;+ getPostFrase(): String&lt;/div&gt;&lt;div&gt;+ setFrase() : Void&lt;/div&gt;&lt;div&gt;+ setOption(): Void&lt;/div&gt;&lt;div&gt;+ setPosCifrado(): Void&lt;/div&gt;" style="text;strokeColor=#666666;fillColor=#f5f5f5;align=left;verticalAlign=middle;spacingLeft=4;spacingRight=4;overflow=hidden;points=[[0,0.5],[1,0.5]];portConstraint=eastwest;rotatable=0;whiteSpace=wrap;html=1;fontColor=#333333;" vertex="1" parent="weX92VrwuEiOlEdSTvCO-12">
          <mxGeometry y="120" width="210" height="110" as="geometry" />
        </mxCell>
        <mxCell id="weX92VrwuEiOlEdSTvCO-16" value="&lt;h3&gt;&lt;b&gt;&lt;font face=&quot;Lucida Console&quot;&gt;JankenPon&lt;/font&gt;&lt;/b&gt;&lt;/h3&gt;" style="swimlane;fontStyle=0;childLayout=stackLayout;horizontal=1;startSize=30;horizontalStack=0;resizeParent=1;resizeParentMax=0;resizeLast=0;collapsible=1;marginBottom=0;whiteSpace=wrap;html=1;fillColor=#d5e8d4;strokeColor=#82b366;" vertex="1" parent="1">
          <mxGeometry x="280" y="30" width="210" height="230" as="geometry" />
        </mxCell>
        <mxCell id="weX92VrwuEiOlEdSTvCO-17" value="&lt;b&gt;&lt;font face=&quot;Lucida Console&quot;&gt;- option: Int&lt;/font&gt;&lt;/b&gt;&lt;div&gt;&lt;b&gt;&lt;font face=&quot;Lucida Console&quot;&gt;- cpu: Int&lt;/font&gt;&lt;/b&gt;&lt;/div&gt;&lt;div&gt;&lt;b&gt;&lt;font face=&quot;Lucida Console&quot;&gt;- victory: Boolean&lt;/font&gt;&lt;/b&gt;&lt;/div&gt;" style="text;strokeColor=#666666;fillColor=#f5f5f5;align=left;verticalAlign=middle;spacingLeft=4;spacingRight=4;overflow=hidden;points=[[0,0.5],[1,0.5]];portConstraint=eastwest;rotatable=0;whiteSpace=wrap;html=1;fontColor=#333333;" vertex="1" parent="weX92VrwuEiOlEdSTvCO-16">
          <mxGeometry y="30" width="210" height="90" as="geometry" />
        </mxCell>
        <mxCell id="weX92VrwuEiOlEdSTvCO-18" value="+ cpuPlays(): Void&lt;div&gt;+ matchUp() : Void&amp;nbsp;&lt;/div&gt;&lt;div&gt;+ getVictory(): String&lt;/div&gt;&lt;div&gt;+ setOption() : Void&lt;/div&gt;" style="text;strokeColor=#666666;fillColor=#f5f5f5;align=left;verticalAlign=middle;spacingLeft=4;spacingRight=4;overflow=hidden;points=[[0,0.5],[1,0.5]];portConstraint=eastwest;rotatable=0;whiteSpace=wrap;html=1;fontColor=#333333;" vertex="1" parent="weX92VrwuEiOlEdSTvCO-16">
          <mxGeometry y="120" width="210" height="110" as="geometry" />
        </mxCell>
        <mxCell id="weX92VrwuEiOlEdSTvCO-21" value="&lt;h3&gt;&lt;b&gt;&lt;font face=&quot;Lucida Console&quot;&gt;GuessNum&lt;/font&gt;&lt;/b&gt;&lt;/h3&gt;" style="swimlane;fontStyle=0;childLayout=stackLayout;horizontal=1;startSize=30;horizontalStack=0;resizeParent=1;resizeParentMax=0;resizeLast=0;collapsible=1;marginBottom=0;whiteSpace=wrap;html=1;fillColor=#d5e8d4;strokeColor=#82b366;" vertex="1" parent="1">
          <mxGeometry x="520" y="30" width="210" height="230" as="geometry" />
        </mxCell>
        <mxCell id="weX92VrwuEiOlEdSTvCO-22" value="&lt;b&gt;&lt;font face=&quot;Lucida Console&quot;&gt;- numToGuess: Int&lt;/font&gt;&lt;/b&gt;&lt;div&gt;&lt;b&gt;&lt;font face=&quot;Lucida Console&quot;&gt;- Guess: Int&lt;/font&gt;&lt;/b&gt;&lt;b style=&quot;background-color: transparent; color: light-dark(rgb(51, 51, 51), rgb(193, 193, 193));&quot;&gt;&lt;font face=&quot;Lucida Console&quot;&gt;&amp;nbsp;&lt;span style=&quot;white-space: pre;&quot;&gt;&#x9;&lt;/span&gt;&lt;span style=&quot;white-space: pre;&quot;&gt;&#x9;&lt;/span&gt;&lt;/font&gt;&lt;/b&gt;&lt;/div&gt;" style="text;strokeColor=#666666;fillColor=#f5f5f5;align=left;verticalAlign=middle;spacingLeft=4;spacingRight=4;overflow=hidden;points=[[0,0.5],[1,0.5]];portConstraint=eastwest;rotatable=0;whiteSpace=wrap;html=1;fontColor=#333333;" vertex="1" parent="weX92VrwuEiOlEdSTvCO-21">
          <mxGeometry y="30" width="210" height="90" as="geometry" />
        </mxCell>
        <mxCell id="weX92VrwuEiOlEdSTvCO-23" value="+ cifrar(): Void&lt;div&gt;+ decifrar() : Void&amp;nbsp;&lt;/div&gt;&lt;div&gt;+ getPostFrase(): String&lt;/div&gt;&lt;div&gt;+ setFrase() : Void&lt;/div&gt;&lt;div&gt;+ setOption(): Void&lt;/div&gt;&lt;div&gt;+ setPosCifrado(): Void&lt;/div&gt;" style="text;strokeColor=#666666;fillColor=#f5f5f5;align=left;verticalAlign=middle;spacingLeft=4;spacingRight=4;overflow=hidden;points=[[0,0.5],[1,0.5]];portConstraint=eastwest;rotatable=0;whiteSpace=wrap;html=1;fontColor=#333333;" vertex="1" parent="weX92VrwuEiOlEdSTvCO-21">
          <mxGeometry y="120" width="210" height="110" as="geometry" />
        </mxCell>
        <mxCell id="weX92VrwuEiOlEdSTvCO-24" value="&lt;h3&gt;&lt;b&gt;&lt;font face=&quot;Lucida Console&quot;&gt;ConvTermica&lt;/font&gt;&lt;/b&gt;&lt;/h3&gt;" style="swimlane;fontStyle=0;childLayout=stackLayout;horizontal=1;startSize=30;horizontalStack=0;resizeParent=1;resizeParentMax=0;resizeLast=0;collapsible=1;marginBottom=0;whiteSpace=wrap;html=1;fillColor=#d5e8d4;strokeColor=#82b366;" vertex="1" parent="1">
          <mxGeometry x="40" y="300" width="210" height="230" as="geometry" />
        </mxCell>
        <mxCell id="weX92VrwuEiOlEdSTvCO-25" value="&lt;font face=&quot;Lucida Console&quot;&gt;&lt;b&gt;- temp: Double&lt;/b&gt;&lt;/font&gt;&lt;div&gt;&lt;font face=&quot;Lucida Console&quot;&gt;&lt;b&gt;- conversion: Double&lt;/b&gt;&lt;/font&gt;&lt;/div&gt;&lt;div&gt;&lt;font face=&quot;Lucida Console&quot;&gt;&lt;b&gt;- convType: Int&lt;/b&gt;&lt;/font&gt;&lt;/div&gt;" style="text;strokeColor=#666666;fillColor=#f5f5f5;align=left;verticalAlign=middle;spacingLeft=4;spacingRight=4;overflow=hidden;points=[[0,0.5],[1,0.5]];portConstraint=eastwest;rotatable=0;whiteSpace=wrap;html=1;fontColor=#333333;" vertex="1" parent="weX92VrwuEiOlEdSTvCO-24">
          <mxGeometry y="30" width="210" height="90" as="geometry" />
        </mxCell>
        <mxCell id="weX92VrwuEiOlEdSTvCO-26" value="+ conversion(): Void&lt;div&gt;+ getConversion(): Void&lt;div&gt;&lt;br&gt;&lt;/div&gt;&lt;/div&gt;" style="text;strokeColor=#666666;fillColor=#f5f5f5;align=left;verticalAlign=middle;spacingLeft=4;spacingRight=4;overflow=hidden;points=[[0,0.5],[1,0.5]];portConstraint=eastwest;rotatable=0;whiteSpace=wrap;html=1;fontColor=#333333;" vertex="1" parent="weX92VrwuEiOlEdSTvCO-24">
          <mxGeometry y="120" width="210" height="110" as="geometry" />
        </mxCell>
        <mxCell id="weX92VrwuEiOlEdSTvCO-27" value="&lt;h3&gt;&lt;b&gt;&lt;font face=&quot;Lucida Console&quot;&gt;CheckPal&lt;/font&gt;&lt;/b&gt;&lt;/h3&gt;" style="swimlane;fontStyle=0;childLayout=stackLayout;horizontal=1;startSize=30;horizontalStack=0;resizeParent=1;resizeParentMax=0;resizeLast=0;collapsible=1;marginBottom=0;whiteSpace=wrap;html=1;fillColor=#d5e8d4;strokeColor=#82b366;" vertex="1" parent="1">
          <mxGeometry x="280" y="300" width="210" height="230" as="geometry" />
        </mxCell>
        <mxCell id="weX92VrwuEiOlEdSTvCO-28" value="&lt;b&gt;&lt;font face=&quot;Lucida Console&quot;&gt;- option: Int&lt;/font&gt;&lt;/b&gt;&lt;div&gt;&lt;b&gt;&lt;font face=&quot;Lucida Console&quot;&gt;- : Int&lt;/font&gt;&lt;/b&gt;&lt;/div&gt;&lt;div&gt;&lt;b&gt;&lt;font face=&quot;Lucida Console&quot;&gt;- option: Int&amp;nbsp;&lt;/font&gt;&lt;/b&gt;&lt;/div&gt;&lt;div&gt;&lt;b&gt;&lt;font face=&quot;Lucida Console&quot;&gt;- p: String&lt;/font&gt;&lt;/b&gt;&lt;/div&gt;" style="text;strokeColor=#666666;fillColor=#f5f5f5;align=left;verticalAlign=middle;spacingLeft=4;spacingRight=4;overflow=hidden;points=[[0,0.5],[1,0.5]];portConstraint=eastwest;rotatable=0;whiteSpace=wrap;html=1;fontColor=#333333;" vertex="1" parent="weX92VrwuEiOlEdSTvCO-27">
          <mxGeometry y="30" width="210" height="90" as="geometry" />
        </mxCell>
        <mxCell id="weX92VrwuEiOlEdSTvCO-29" value="+ cifrar(): Void&lt;div&gt;+ decifrar() : Void&amp;nbsp;&lt;/div&gt;&lt;div&gt;+ getPostFrase(): String&lt;/div&gt;&lt;div&gt;+ setFrase() : Void&lt;/div&gt;&lt;div&gt;+ setOption(): Void&lt;/div&gt;&lt;div&gt;+ setPosCifrado(): Void&lt;/div&gt;" style="text;strokeColor=#666666;fillColor=#f5f5f5;align=left;verticalAlign=middle;spacingLeft=4;spacingRight=4;overflow=hidden;points=[[0,0.5],[1,0.5]];portConstraint=eastwest;rotatable=0;whiteSpace=wrap;html=1;fontColor=#333333;" vertex="1" parent="weX92VrwuEiOlEdSTvCO-27">
          <mxGeometry y="120" width="210" height="110" as="geometry" />
        </mxCell>
        <mxCell id="weX92VrwuEiOlEdSTvCO-30" value="&lt;h3&gt;&lt;b&gt;&lt;font face=&quot;Lucida Console&quot;&gt;Main&lt;/font&gt;&lt;/b&gt;&lt;/h3&gt;" style="swimlane;fontStyle=0;childLayout=stackLayout;horizontal=1;startSize=30;horizontalStack=0;resizeParent=1;resizeParentMax=0;resizeLast=0;collapsible=1;marginBottom=0;whiteSpace=wrap;html=1;fillColor=#d5e8d4;strokeColor=#82b366;" vertex="1" parent="1">
          <mxGeometry x="520" y="300" width="210" height="230" as="geometry" />
        </mxCell>
        <mxCell id="weX92VrwuEiOlEdSTvCO-31" value="&lt;b&gt;&lt;font face=&quot;Lucida Console&quot;&gt;- option: Int&lt;/font&gt;&lt;/b&gt;&lt;div&gt;&lt;b&gt;&lt;font face=&quot;Lucida Console&quot;&gt;- : Int&lt;/font&gt;&lt;/b&gt;&lt;/div&gt;&lt;div&gt;&lt;b&gt;&lt;font face=&quot;Lucida Console&quot;&gt;- option: Int&amp;nbsp;&lt;/font&gt;&lt;/b&gt;&lt;/div&gt;&lt;div&gt;&lt;b&gt;&lt;font face=&quot;Lucida Console&quot;&gt;- p: String&lt;/font&gt;&lt;/b&gt;&lt;/div&gt;" style="text;strokeColor=#666666;fillColor=#f5f5f5;align=left;verticalAlign=middle;spacingLeft=4;spacingRight=4;overflow=hidden;points=[[0,0.5],[1,0.5]];portConstraint=eastwest;rotatable=0;whiteSpace=wrap;html=1;fontColor=#333333;" vertex="1" parent="weX92VrwuEiOlEdSTvCO-30">
          <mxGeometry y="30" width="210" height="90" as="geometry" />
        </mxCell>
        <mxCell id="weX92VrwuEiOlEdSTvCO-32" value="+Menu(): Void&lt;div&gt;+Validation(): Int&lt;/div&gt;" style="text;strokeColor=#666666;fillColor=#f5f5f5;align=left;verticalAlign=middle;spacingLeft=4;spacingRight=4;overflow=hidden;points=[[0,0.5],[1,0.5]];portConstraint=eastwest;rotatable=0;whiteSpace=wrap;html=1;fontColor=#333333;" vertex="1" parent="weX92VrwuEiOlEdSTvCO-30">
          <mxGeometry y="120" width="210" height="110" as="geometry" />
        </mxCell>
      </root>
    </mxGraphModel>
  </diagram>
</mxfile>
